# xmcd
#
# Track frame offsets: 
#        150
#        18250
#        38736
#        63162
#        87358
#        115297
#        143327
#        160151
#        182083
#        205200
#
# Disc length: 3059 seconds
#
# Revision: 0
# Processed by: cddbd v1.5.2PL0 Copyright (c) Steve Scherf et al.
# Submitted via: ExactAudioCopyFreeDBPlugin 1.0
#
DISCID=790bf10a
DTITLE=Gnaposs - Happiness Vol. I
DYEAR=2011
DGENRE=Funk-Rock-Blues
TTITLE0=This Fever
TTITLE1=So Real
TTITLE2=Kino Escalation
TTITLE3=New Sufle
TTITLE4=Smooth Funk
TTITLE5=You're On My MInd
TTITLE6=Happy To Be Sad
TTITLE7=Tabule
TTITLE8=Happy Boy
TTITLE9=Now That She's Gone
EXTD=
EXTT0=
EXTT1=
EXTT2=
EXTT3=
EXTT4=
EXTT5=
EXTT6=
EXTT7=
EXTT8=
EXTT9=
PLAYORDER=
